<svg width="25" height="24" viewBox="0 0 25 24" fill="none" xmlns="http://www.w3.org/2000/svg">
<rect width="24" height="24" transform="translate(0.5)" fill="white"/>
<path d="M16 11C16.4167 11 16.7708 10.8542 17.0625 10.5625C17.3542 10.2708 17.5 9.91667 17.5 9.5C17.5 9.08333 17.3542 8.72917 17.0625 8.4375C16.7708 8.14583 16.4167 8 16 8C15.5833 8 15.2292 8.14583 14.9375 8.4375C14.6458 8.72917 14.5 9.08333 14.5 9.5C14.5 9.91667 14.6458 10.2708 14.9375 10.5625C15.2292 10.8542 15.5833 11 16 11ZM9 11C9.41667 11 9.77083 10.8542 10.0625 10.5625C10.3542 10.2708 10.5 9.91667 10.5 9.5C10.5 9.08333 10.3542 8.72917 10.0625 8.4375C9.77083 8.14583 9.41667 8 9 8C8.58333 8 8.22917 8.14583 7.9375 8.4375C7.64583 8.72917 7.5 9.08333 7.5 9.5C7.5 9.91667 7.64583 10.2708 7.9375 10.5625C8.22917 10.8542 8.58333 11 9 11ZM12.5 17.5C13.6333 17.5 14.6625 17.1792 15.5875 16.5375C16.5125 15.8958 17.1833 15.05 17.6 14H7.4C7.81667 15.05 8.4875 15.8958 9.4125 16.5375C10.3375 17.1792 11.3667 17.5 12.5 17.5ZM12.5 22C11.1167 22 9.81667 21.7375 8.6 21.2125C7.38333 20.6875 6.325 19.975 5.425 19.075C4.525 18.175 3.8125 17.1167 3.2875 15.9C2.7625 14.6833 2.5 13.3833 2.5 12C2.5 10.6167 2.7625 9.31667 3.2875 8.1C3.8125 6.88333 4.525 5.825 5.425 4.925C6.325 4.025 7.38333 3.3125 8.6 2.7875C9.81667 2.2625 11.1167 2 12.5 2C13.8833 2 15.1833 2.2625 16.4 2.7875C17.6167 3.3125 18.675 4.025 19.575 4.925C20.475 5.825 21.1875 6.88333 21.7125 8.1C22.2375 9.31667 22.5 10.6167 22.5 12C22.5 13.3833 22.2375 14.6833 21.7125 15.9C21.1875 17.1167 20.475 18.175 19.575 19.075C18.675 19.975 17.6167 20.6875 16.4 21.2125C15.1833 21.7375 13.8833 22 12.5 22ZM12.5 20C14.7333 20 16.625 19.225 18.175 17.675C19.725 16.125 20.5 14.2333 20.5 12C20.5 9.76667 19.725 7.875 18.175 6.325C16.625 4.775 14.7333 4 12.5 4C10.2667 4 8.375 4.775 6.825 6.325C5.275 7.875 4.5 9.76667 4.5 12C4.5 14.2333 5.275 16.125 6.825 17.675C8.375 19.225 10.2667 20 12.5 20Z" fill="#4400B3"/>
</svg>
