<svg width="48" height="49" viewBox="0 0 48 49" fill="none" xmlns="http://www.w3.org/2000/svg">
<g clip-path="url(#clip0_6_25)">
<path d="M20.4 29.6L24 26L27.6 29.6L29 28.2L25.4 24.6L29 21L27.6 19.6L24 23.2L20.4 19.6L19 21L22.6 24.6L19 28.2L20.4 29.6ZM24 34.6C22.6167 34.6 21.3167 34.3375 20.1 33.8125C18.8833 33.2875 17.825 32.575 16.925 31.675C16.025 30.775 15.3125 29.7167 14.7875 28.5C14.2625 27.2833 14 25.9833 14 24.6C14 23.2167 14.2625 21.9167 14.7875 20.7C15.3125 19.4833 16.025 18.425 16.925 17.525C17.825 16.625 18.8833 15.9125 20.1 15.3875C21.3167 14.8625 22.6167 14.6 24 14.6C25.3833 14.6 26.6833 14.8625 27.9 15.3875C29.1167 15.9125 30.175 16.625 31.075 17.525C31.975 18.425 32.6875 19.4833 33.2125 20.7C33.7375 21.9167 34 23.2167 34 24.6C34 25.9833 33.7375 27.2833 33.2125 28.5C32.6875 29.7167 31.975 30.775 31.075 31.675C30.175 32.575 29.1167 33.2875 27.9 33.8125C26.6833 34.3375 25.3833 34.6 24 34.6ZM24 32.6C26.2333 32.6 28.125 31.825 29.675 30.275C31.225 28.725 32 26.8333 32 24.6C32 22.3667 31.225 20.475 29.675 18.925C28.125 17.375 26.2333 16.6 24 16.6C21.7667 16.6 19.875 17.375 18.325 18.925C16.775 20.475 16 22.3667 16 24.6C16 26.8333 16.775 28.725 18.325 30.275C19.875 31.825 21.7667 32.6 24 32.6Z" fill="#49454F"/>
</g>
<defs>
<clipPath id="clip0_6_25">
<rect x="4" y="4.60001" width="40" height="40" rx="20" fill="white"/>
</clipPath>
</defs>
</svg>
