<svg width="48" height="49" viewBox="0 0 48 49" fill="none" xmlns="http://www.w3.org/2000/svg">
<g clip-path="url(#clip0_6_39)">
<path d="M20.4 29.2L24 25.6L27.6 29.2L29 27.8L25.4 24.2L29 20.6L27.6 19.2L24 22.8L20.4 19.2L19 20.6L22.6 24.2L19 27.8L20.4 29.2ZM24 34.2C22.6167 34.2 21.3167 33.9375 20.1 33.4125C18.8833 32.8875 17.825 32.175 16.925 31.275C16.025 30.375 15.3125 29.3167 14.7875 28.1C14.2625 26.8833 14 25.5833 14 24.2C14 22.8167 14.2625 21.5167 14.7875 20.3C15.3125 19.0833 16.025 18.025 16.925 17.125C17.825 16.225 18.8833 15.5125 20.1 14.9875C21.3167 14.4625 22.6167 14.2 24 14.2C25.3833 14.2 26.6833 14.4625 27.9 14.9875C29.1167 15.5125 30.175 16.225 31.075 17.125C31.975 18.025 32.6875 19.0833 33.2125 20.3C33.7375 21.5167 34 22.8167 34 24.2C34 25.5833 33.7375 26.8833 33.2125 28.1C32.6875 29.3167 31.975 30.375 31.075 31.275C30.175 32.175 29.1167 32.8875 27.9 33.4125C26.6833 33.9375 25.3833 34.2 24 34.2ZM24 32.2C26.2333 32.2 28.125 31.425 29.675 29.875C31.225 28.325 32 26.4333 32 24.2C32 21.9667 31.225 20.075 29.675 18.525C28.125 16.975 26.2333 16.2 24 16.2C21.7667 16.2 19.875 16.975 18.325 18.525C16.775 20.075 16 21.9667 16 24.2C16 26.4333 16.775 28.325 18.325 29.875C19.875 31.425 21.7667 32.2 24 32.2Z" fill="#49454F"/>
</g>
<defs>
<clipPath id="clip0_6_39">
<rect x="4" y="4.2" width="40" height="40" rx="20" fill="white"/>
</clipPath>
</defs>
</svg>
